<svg xmlns="http://www.w3.org/2000/svg" width="5" height="22" viewBox="0 0 5 22" fill="none">
<path d="M4.70728 1.83333C4.70728 2.31956 4.49436 2.78588 4.11536 3.1297C3.73637 3.47351 3.22234 3.66667 2.68636 3.66667C2.15038 3.66667 1.63635 3.47351 1.25736 3.1297C0.878363 2.78588 0.665445 2.31956 0.665445 1.83333C0.665445 1.3471 0.878363 0.880788 1.25736 0.536971C1.63635 0.193154 2.15038 0 2.68636 0C3.22234 0 3.73637 0.193154 4.11536 0.536971C4.49436 0.880788 4.70728 1.3471 4.70728 1.83333ZM4.70728 11C4.70728 11.4862 4.49436 11.9525 4.11536 12.2964C3.73637 12.6402 3.22234 12.8333 2.68636 12.8333C2.15038 12.8333 1.63635 12.6402 1.25736 12.2964C0.878363 11.9525 0.665445 11.4862 0.665445 11C0.665445 10.5138 0.878363 10.0475 1.25736 9.70364C1.63635 9.35982 2.15038 9.16667 2.68636 9.16667C3.22234 9.16667 3.73637 9.35982 4.11536 9.70364C4.49436 10.0475 4.70728 10.5138 4.70728 11ZM4.70728 20.1667C4.70728 20.6529 4.49436 21.1192 4.11536 21.463C3.73637 21.8068 3.22234 22 2.68636 22C2.15038 22 1.63635 21.8068 1.25736 21.463C0.878363 21.1192 0.665445 20.6529 0.665445 20.1667C0.665445 19.6804 0.878363 19.2141 1.25736 18.8703C1.63635 18.5265 2.15038 18.3333 2.68636 18.3333C3.22234 18.3333 3.73637 18.5265 4.11536 18.8703C4.49436 19.2141 4.70728 19.6804 4.70728 20.1667Z" fill="#A3A393"/>
</svg>