<svg xmlns="http://www.w3.org/2000/svg" width="20" height="20" viewBox="0 0 20 20" fill="none">
  <path d="M16.6663 4.16732C16.6663 3.9463 16.5785 3.73434 16.4223 3.57806C16.266 3.42178 16.054 3.33398 15.833 3.33398H11.6663C11.4453 3.33398 11.2334 3.42178 11.0771 3.57806C10.9208 3.73434 10.833 3.9463 10.833 4.16732C10.833 4.38833 10.9208 4.60029 11.0771 4.75657C11.2334 4.91285 11.4453 5.00065 11.6663 5.00065H13.808L11.0747 7.74232C10.9966 7.81979 10.9346 7.91195 10.8923 8.0135C10.85 8.11505 10.8282 8.22397 10.8282 8.33398C10.8282 8.44399 10.85 8.55292 10.8923 8.65447C10.9346 8.75601 10.9966 8.84818 11.0747 8.92565C11.1521 9.00376 11.2443 9.06575 11.3459 9.10806C11.4474 9.15037 11.5563 9.17215 11.6663 9.17215C11.7764 9.17215 11.8853 9.15037 11.9868 9.10806C12.0884 9.06575 12.1805 9.00376 12.258 8.92565L14.9997 6.18398V8.33398C14.9997 8.555 15.0875 8.76696 15.2438 8.92324C15.4 9.07952 15.612 9.16732 15.833 9.16732C16.054 9.16732 16.266 9.07952 16.4223 8.92324C16.5785 8.76696 16.6663 8.555 16.6663 8.33398V4.16732ZM8.92467 11.0757C8.84721 10.9975 8.75504 10.9355 8.65349 10.8932C8.55194 10.8509 8.44302 10.8292 8.33301 10.8292C8.223 10.8292 8.11408 10.8509 8.01253 10.8932C7.91098 10.9355 7.81881 10.9975 7.74134 11.0757L4.99967 13.809V11.6673C4.99967 11.4463 4.91188 11.2343 4.7556 11.0781C4.59932 10.9218 4.38735 10.834 4.16634 10.834C3.94533 10.834 3.73337 10.9218 3.57709 11.0781C3.42081 11.2343 3.33301 11.4463 3.33301 11.6673V15.834C3.33301 16.055 3.42081 16.267 3.57709 16.4232C3.73337 16.5795 3.94533 16.6673 4.16634 16.6673H8.33301C8.55402 16.6673 8.76598 16.5795 8.92226 16.4232C9.07854 16.267 9.16634 16.055 9.16634 15.834C9.16634 15.613 9.07854 15.401 8.92226 15.2447C8.76598 15.0884 8.55402 15.0007 8.33301 15.0007H6.18301L8.92467 12.259C9.00278 12.1815 9.06478 12.0893 9.10708 11.9878C9.14939 11.8862 9.17117 11.7773 9.17117 11.6673C9.17117 11.5573 9.14939 11.4484 9.10708 11.3468C9.06478 11.2453 9.00278 11.1531 8.92467 11.0757Z" fill="#F4F85A"/>
</svg>