<svg
            width="46"
            height="43"
            viewBox="0 0 46 43"
            fill="none"
            xmlns="http://www.w3.org/2000/svg"
          >
            <path
              d="M26.0703 31.9536C26.0703 30.9136 25.2272 30.0705 24.1872 30.0705H21.7935C20.7535 30.0705 19.9104 30.9136 19.9104 31.9536L19.9104 40.8707C19.9104 41.9107 20.7535 42.7538 21.7935 42.7538L24.1872 42.7538C25.2272 42.7538 26.0703 41.9107 26.0703 40.8707V31.9536Z"
              fill="#ECEFED"
            />
            <path
              d="M14.3167 39.9577L10.0955 37.4857C9.16053 36.9382 8.87933 35.7166 9.48081 34.8154L15.449 25.8733C15.7986 25.3496 16.3868 25.0352 17.0165 25.0356L29.0185 25.0436C29.6467 25.0441 30.2334 25.3578 30.5826 25.88L36.5549 34.8118C37.1583 35.7142 36.8759 36.9384 35.9382 37.4852L31.7177 39.9464C30.7934 40.4853 29.6065 40.147 29.1053 39.2017L24.8208 31.1201C24.4942 30.5042 23.8542 30.1191 23.157 30.1191L22.8749 30.1191C22.1769 30.1191 21.5363 30.5051 21.2101 31.1221L16.9331 39.2128C16.432 40.1606 15.2419 40.4995 14.3167 39.9577Z"
              fill="#ECEFED"
            />
            <path
              d="M32.2607 11.703C31.3935 12.2771 31.1561 13.4456 31.7303 14.3127L33.0518 16.3085C33.626 17.1756 34.7945 17.413 35.6616 16.8388L43.0964 11.9156C43.9635 11.3414 44.201 10.173 43.6268 9.30586L42.3052 7.31009C41.731 6.44297 40.5626 6.20551 39.6955 6.7797L32.2607 11.703Z"
              fill="#ECEFED"
            />
            <path
              d="M45.439 17.1068L45.7085 21.9912C45.7682 23.073 44.9049 23.982 43.8214 23.978L33.0707 23.9389C32.441 23.9366 31.8541 23.6197 31.5068 23.0945L24.8871 13.0832C24.5405 12.5592 24.4782 11.8968 24.7208 11.3173L28.8705 1.40638C29.2897 0.405121 30.4664 -0.0353133 31.44 0.444606L35.8223 2.6047C36.7819 3.07772 37.1551 4.25421 36.6437 5.19392L32.2711 13.2282C31.9378 13.8405 31.9701 14.5868 32.355 15.1681L32.5108 15.4033C32.8961 15.9852 33.5717 16.3063 34.2662 16.2376L43.3734 15.3366C44.4403 15.2311 45.3799 16.0363 45.439 17.1068Z"
              fill="#ECEFED"
            />
            <path
              d="M13.7398 11.703C14.6069 12.2771 14.8444 13.4456 14.2702 14.3127L12.9486 16.3085C12.3744 17.1756 11.206 17.413 10.3389 16.8388L2.90408 11.9156C2.03696 11.3414 1.7995 10.173 2.37369 9.30586L3.69527 7.31009C4.26947 6.44297 5.43789 6.20551 6.305 6.7797L13.7398 11.703Z"
              fill="#ECEFED"
            />
            <path
              d="M0.5615 17.1068L0.291982 21.9912C0.232287 23.073 1.09559 23.982 2.17906 23.978L12.9298 23.9389C13.5595 23.9366 14.1464 23.6197 14.4937 23.0945L21.1134 13.0832C21.4599 12.5592 21.5223 11.8968 21.2796 11.3173L17.13 1.40638C16.7108 0.405121 15.5341 -0.0353133 14.5605 0.444606L10.1782 2.6047C9.21858 3.07772 8.84534 4.25421 9.35678 5.19392L13.7294 13.2282C14.0627 13.8405 14.0304 14.5868 13.6455 15.1681L13.4897 15.4033C13.1044 15.9852 12.4288 16.3063 11.7343 16.2376L2.62711 15.3366C1.56019 15.2311 0.620569 16.0363 0.5615 17.1068Z"
              fill="#ECEFED"
            />
            <path
              d="M27.0098 19.7518C27.0098 21.9662 25.2147 23.7613 23.0003 23.7613C20.7859 23.7613 18.9908 21.9662 18.9908 19.7518C18.9908 17.5374 20.7859 15.7423 23.0003 15.7423C25.2147 15.7423 27.0098 17.5374 27.0098 19.7518Z"
              fill="#ECEFED"
            />
          </svg>