<svg xmlns="http://www.w3.org/2000/svg" width="220" height="51" viewBox="0 0 220 51" fill="none">
  <path d="M34.284 19.2211C32.6071 19.2211 31.2477 20.5698 31.2477 22.2334V49.9959C31.2477 50.5504 30.7946 51 30.2356 51H24.9662C24.4072 51 23.9541 50.5504 23.9541 49.9959V21.2293C23.9541 20.1202 23.0478 19.2211 21.9299 19.2211H10.2929C8.61598 19.2211 7.25657 20.5698 7.25657 22.2334V49.9959C7.25657 50.5504 6.80344 51 6.24446 51H1.01211C0.453137 51 0 50.5504 0 49.9959V13.0127C0 12.4582 0.453137 12.0086 1.01211 12.0086H6.24446C6.80344 12.0086 7.25657 12.4582 7.25657 13.0127V18.8916C7.30594 17.9397 7.52808 17.0488 7.92299 16.2189C8.31791 15.3647 8.83624 14.6324 9.47797 14.0223C10.1444 13.3877 10.9095 12.8995 11.7734 12.5578C12.6373 12.1917 13.5629 12.0086 14.5502 12.0086H22.3347C23.2973 12.0086 24.2106 12.1917 25.0744 12.5578C25.9383 12.8995 26.7035 13.3877 27.3699 14.0223C28.0363 14.6324 28.567 15.3647 28.9619 16.2189C29.3815 17.0488 29.6036 17.9397 29.6283 18.8916C29.6777 17.9397 29.8875 17.0488 30.2577 16.2189C30.6526 15.3647 31.171 14.6324 31.8127 14.0223C32.4791 13.3877 33.2443 12.8995 34.1081 12.5578C34.972 12.1917 35.8976 12.0086 36.8849 12.0086H47.9082C48.9202 12.0086 49.8704 12.2039 50.759 12.5944C51.6475 12.9605 52.4127 13.4731 53.0544 14.1321C53.7208 14.7667 54.2392 15.5233 54.6094 16.402C55.0043 17.2807 55.2018 18.2204 55.2018 19.2211V49.9959C55.2018 50.5504 54.7486 51 54.1897 51H48.9203C48.3613 51 47.9082 50.5504 47.9082 49.9959V21.2293C47.9082 20.1202 47.0019 19.2211 45.884 19.2211H34.284Z" fill="#ECEFED"/>
  <path d="M57.1198 13.0127C57.1198 12.4582 57.573 12.0086 58.132 12.0086H63.3643C63.9233 12.0086 64.3764 12.4582 64.3764 13.0127V41.7793C64.3764 42.8884 65.2827 43.7875 66.4006 43.7875H81.6659C83.3428 43.7875 84.7022 42.4388 84.7022 40.7752V13.0127C84.7022 12.4582 85.1553 12.0086 85.7143 12.0086H90.9837C91.5427 12.0086 91.9958 12.4582 91.9958 13.0127V49.9959C91.9958 50.5504 91.5427 51 90.9837 51H86.1192C85.5602 51 85.1071 50.5504 85.1071 49.9959V44.4099C85.033 45.313 84.7862 46.1673 84.3666 46.9727C83.947 47.7782 83.404 48.486 82.7376 49.0962C82.0958 49.682 81.3554 50.1457 80.5162 50.4874C79.677 50.8291 78.7884 51 77.8505 51H64.3764C63.3891 51 62.4512 50.8169 61.5626 50.4508C60.6741 50.0603 59.8966 49.5477 59.2302 48.9131C58.5884 48.2541 58.0701 47.4853 57.6752 46.6066C57.305 45.7279 57.1198 44.7882 57.1198 43.7875V13.0127Z" fill="#ECEFED"/>
  <path d="M116.737 43.7875C117.576 43.7875 118.255 43.1132 118.255 42.2813V36.2506C118.255 35.4188 117.576 34.7444 116.737 34.7444H100.965C99.9534 34.7444 99.0031 34.5614 98.1145 34.1953C97.226 33.8047 96.4485 33.2922 95.7821 32.6576C95.1403 31.9986 94.622 31.2297 94.2271 30.351C93.8568 29.4724 93.6717 28.5327 93.6717 27.5319V19.2211C93.6717 18.2204 93.8568 17.2807 94.2271 16.402C94.622 15.5233 95.1403 14.7667 95.7821 14.1321C96.4485 13.4731 97.226 12.9605 98.1145 12.5944C99.0031 12.2039 99.9534 12.0086 100.965 12.0086H124.031V19.2211H102.483C101.645 19.2211 100.965 19.8954 100.965 20.7273V26.0258C100.965 26.8576 101.645 27.5319 102.483 27.5319H118.255C119.267 27.5319 120.205 27.7272 121.069 28.1177C121.958 28.4838 122.735 28.9964 123.401 29.6554C124.068 30.29 124.586 31.0467 124.956 31.9253C125.351 32.804 125.549 33.7437 125.549 34.7444V43.7875C125.549 44.7882 125.351 45.7279 124.956 46.6066C124.586 47.4853 124.068 48.2541 123.401 48.9131C122.735 49.5477 121.958 50.0603 121.069 50.4508C120.205 50.8169 119.267 51 118.255 51H94.6838C94.1249 51 93.6717 50.5504 93.6717 49.9959V44.7916C93.6717 44.2371 94.1249 43.7875 94.6838 43.7875H116.737Z" fill="#ECEFED"/>
  <path d="M123.283 12.0086H131.897C132.456 12.0086 132.909 11.5591 132.909 11.0045V1.00411C132.909 0.449555 133.362 0 133.921 0H139.191C139.749 0 140.203 0.449556 140.203 1.00411V11.0045C140.203 11.5591 140.656 12.0086 141.215 12.0086H152.149C152.708 12.0086 153.161 12.4582 153.161 13.0127V18.217C153.161 18.7715 152.708 19.2211 152.149 19.2211H141.215C140.656 19.2211 140.203 19.6707 140.203 20.2252V42.7834C140.203 43.3379 140.656 43.7875 141.215 43.7875H152.149C152.708 43.7875 153.161 44.2371 153.161 44.7916V49.9959C153.161 50.5504 152.708 51 152.149 51H140.203C139.215 51 138.277 50.8169 137.389 50.4508C136.5 50.0603 135.723 49.5477 135.056 48.9131C134.39 48.2541 133.859 47.4853 133.464 46.6066C133.094 45.7279 132.909 44.7882 132.909 43.7875V20.2252C132.909 19.6707 132.456 19.2211 131.897 19.2211H123.283V12.0086Z" fill="#ECEFED"/>
  <path d="M188.446 27.9542C188.446 31.947 185.183 35.1838 181.158 35.1838H164.368C163.25 35.1838 162.344 36.0829 162.344 37.192V41.7793C162.344 42.8884 163.25 43.7875 164.368 43.7875H187.434C187.992 43.7875 188.446 44.2371 188.446 44.7916V49.9959C188.446 50.5504 187.992 51 187.434 51H162.344C161.357 51 160.419 50.8169 159.53 50.4508C158.642 50.0603 157.864 49.5477 157.198 48.9131C156.556 48.2541 156.038 47.4853 155.643 46.6066C155.273 45.7279 155.088 44.7882 155.088 43.7875V19.2211C155.088 18.2204 155.273 17.2807 155.643 16.402C156.038 15.5233 156.556 14.7667 157.198 14.1321C157.864 13.4731 158.642 12.9605 159.53 12.5944C160.419 12.2039 161.357 12.0086 162.344 12.0086H181.152C182.164 12.0086 183.114 12.2039 184.003 12.5944C184.891 12.9605 185.657 13.4731 186.298 14.1321C186.965 14.7667 187.483 15.5233 187.853 16.402C188.248 17.2807 188.446 18.2204 188.446 19.2211V27.9542ZM163.862 19.2211C163.024 19.2211 162.344 19.8954 162.344 20.7273V26.4651C162.344 27.297 163.024 27.9713 163.862 27.9713H179.634C180.472 27.9713 181.152 27.297 181.152 26.4651V20.7273C181.152 19.8954 180.472 19.2211 179.634 19.2211H163.862Z" fill="#ECEFED"/>
  <path d="M200.711 19.2211C199.034 19.2211 197.675 20.5698 197.675 22.2334V49.9959C197.675 50.5504 197.222 51 196.663 51H191.43C190.871 51 190.418 50.5504 190.418 49.9959V13.0127C190.418 12.4582 190.871 12.0086 191.43 12.0086H196.663C197.222 12.0086 197.675 12.4582 197.675 13.0127V18.8916C197.724 17.9397 197.946 17.0488 198.341 16.2189C198.736 15.3647 199.255 14.6324 199.896 14.0223C200.563 13.3877 201.328 12.8995 202.192 12.5578C203.056 12.1917 203.981 12.0086 204.969 12.0086H212.706C213.718 12.0086 214.656 12.2039 215.52 12.5944C216.409 12.9605 217.186 13.4731 217.853 14.1321C218.519 14.7667 219.037 15.5233 219.408 16.402C219.803 17.2807 220 18.2204 220 19.2211V24.8071C220 25.3616 219.547 25.8112 218.988 25.8112H213.719C213.16 25.8112 212.706 25.3616 212.706 24.8071V20.2252C212.706 19.6707 212.253 19.2211 211.694 19.2211H200.711Z" fill="#ECEFED"/>
</svg>