<svg xmlns="http://www.w3.org/2000/svg" width="5" height="20" viewBox="0 0 5 20" fill="none">
  <g clip-path="url(#clip0_1996_1764)">
    <path d="M4.72754 9.99935C4.72754 10.5373 4.51383 11.0533 4.13343 11.4337C3.75302 11.8141 3.23708 12.0278 2.6991 12.0278C2.16112 12.0278 1.64518 11.8141 1.26477 11.4337C0.884365 11.0533 0.670654 10.5373 0.670654 9.99935C0.670654 9.46137 0.884365 8.94543 1.26477 8.56502C1.64518 8.18462 2.16112 7.97091 2.6991 7.97091C3.23708 7.97091 3.75302 8.18462 4.13343 8.56502C4.51383 8.94543 4.72754 9.46137 4.72754 9.99935ZM4.72754 2.69446C4.72754 3.23244 4.51383 3.74838 4.13343 4.12879C3.75302 4.50919 3.23708 4.72291 2.6991 4.72291C2.16112 4.72291 1.64518 4.50919 1.26477 4.12879C0.884365 3.74838 0.670654 3.23244 0.670654 2.69446C0.670654 2.15648 0.884365 1.64054 1.26477 1.26013C1.64518 0.879726 2.16112 0.666016 2.6991 0.666016C3.23708 0.666016 3.75302 0.879726 4.13343 1.26013C4.51383 1.64054 4.72754 2.15648 4.72754 2.69446ZM4.72754 17.3035C4.72754 17.8414 4.51383 18.3574 4.13343 18.7378C3.75302 19.1182 3.23708 19.3319 2.6991 19.3319C2.16112 19.3319 1.64518 19.1182 1.26477 18.7378C0.884365 18.3574 0.670654 17.8414 0.670654 17.3035C0.670654 16.7655 0.884365 16.2495 1.26477 15.8691C1.64518 15.4887 2.16112 15.275 2.6991 15.275C3.23708 15.275 3.75302 15.4887 4.13343 15.8691C4.51383 16.2495 4.72754 16.7655 4.72754 17.3035Z" fill="#A3A393"/>
  </g>
  <defs>
    <clipPath id="clip0_1996_1764">
      <rect width="3.89667" height="18.6667" fill="white" transform="translate(0.666382 0.666504)"/>
    </clipPath>
  </defs>
</svg>