<svg xmlns="http://www.w3.org/2000/svg" width="24" height="24" viewBox="0 0 24 24" fill="none">
  <g clip-path="url(#clip0_2025_1372)">
    <mask id="mask0_2025_1372" style="mask-type:luminance" maskUnits="userSpaceOnUse" x="0" y="0" width="24" height="24">
      <path d="M24 0H0V24H24V0Z" fill="white"/>
    </mask>
    <g mask="url(#mask0_2025_1372)">
      <path fill-rule="evenodd" clip-rule="evenodd" d="M6 12C9.3137 12 12 9.3137 12 6C12 9.3137 14.6863 12 18 12C14.6863 12 12 14.6863 12 18C12 14.6863 9.3137 12 6 12ZM6 12C2.6863 12 0 14.6863 0 18C0 21.3137 2.6863 24 6 24C9.3137 24 12 21.3137 12 18C12 21.3137 14.6863 24 18 24C21.3137 24 24 21.3137 24 18C24 14.6863 21.3137 12 18 12C21.3137 12 24 9.3137 24 6C24 2.6863 21.3137 0 18 0C14.6863 0 12 2.6863 12 6C12 2.6863 9.3137 0 6 0C2.6863 0 0 2.6863 0 6C0 9.3137 2.6863 12 6 12Z" fill="url(#paint0_linear_2025_1372)"/>
    </g>
  </g>
  <defs>
    <linearGradient id="paint0_linear_2025_1372" x1="12" y1="0" x2="12" y2="24" gradientUnits="userSpaceOnUse">
      <stop stop-color="#F4F85A"/>
      <stop offset="1" stop-color="#FEFFCF"/>
    </linearGradient>
    <clipPath id="clip0_2025_1372">
      <rect width="24" height="24" fill="white"/>
    </clipPath>
  </defs>
</svg>