<svg xmlns="http://www.w3.org/2000/svg" width="80" height="16" viewBox="0 0 80 16" fill="none">
  <path d="M25.4501 5.69078C24.9576 5.69078 24.5583 6.09008 24.5583 6.58264V14.8022C24.5583 14.9664 24.4252 15.0995 24.261 15.0995H22.7132C22.549 15.0995 22.4159 14.9664 22.4159 14.8022V6.28535C22.4159 5.95698 22.1497 5.69078 21.8213 5.69078H18.4032C17.9107 5.69078 17.5114 6.09008 17.5114 6.58264V14.8022C17.5114 14.9664 17.3783 15.0995 17.2141 15.0995H15.6772C15.513 15.0995 15.3799 14.9664 15.3799 14.8022V3.85267C15.3799 3.68848 15.513 3.55538 15.6772 3.55538H17.2141C17.3783 3.55538 17.5114 3.68848 17.5114 3.85267V5.59322C17.5259 5.31139 17.5911 5.04763 17.7071 4.80193C17.8231 4.54901 17.9753 4.33222 18.1638 4.15156C18.3596 3.96367 18.5843 3.81915 18.8381 3.71798C19.0918 3.60958 19.3637 3.55538 19.6537 3.55538H21.9403C22.223 3.55538 22.4912 3.60958 22.745 3.71798C22.9987 3.81915 23.2235 3.96367 23.4192 4.15156C23.615 4.33222 23.7709 4.54901 23.8869 4.80193C24.0101 5.04763 24.0753 5.31139 24.0826 5.59322C24.0971 5.31139 24.1587 5.04763 24.2675 4.80193C24.3835 4.54901 24.5357 4.33222 24.7242 4.15156C24.92 3.96367 25.1447 3.81915 25.3985 3.71798C25.6522 3.60958 25.9241 3.55538 26.2141 3.55538H29.4519C29.7492 3.55538 30.0283 3.61319 30.2893 3.72882C30.5503 3.83721 30.775 3.98897 30.9635 4.18408C31.1593 4.37196 31.3115 4.59598 31.4203 4.85613C31.5363 5.11628 31.5943 5.3945 31.5943 5.69078V14.8022C31.5943 14.9664 31.4612 15.0995 31.297 15.0995H29.7492C29.585 15.0995 29.4519 14.9664 29.4519 14.8022V6.28535C29.4519 5.95698 29.1857 5.69078 28.8574 5.69078H25.4501Z" fill="#FFFFF5"/>
  <path d="M32.1577 3.85267C32.1577 3.68848 32.2908 3.55538 32.455 3.55538H33.9919C34.156 3.55538 34.2891 3.68848 34.2891 3.85267V12.3696C34.2891 12.6979 34.5553 12.9641 34.8837 12.9641H39.3676C39.8601 12.9641 40.2594 12.5648 40.2594 12.0723V3.85267C40.2594 3.68848 40.3925 3.55538 40.5567 3.55538H42.1045C42.2687 3.55538 42.4018 3.68848 42.4018 3.85267V14.8022C42.4018 14.9664 42.2687 15.0995 42.1045 15.0995H40.6756C40.5115 15.0995 40.3784 14.9664 40.3784 14.8022V13.1484C40.3566 13.4158 40.2841 13.6687 40.1609 13.9072C40.0376 14.1457 39.8781 14.3552 39.6824 14.5359C39.4939 14.7093 39.2764 14.8466 39.0299 14.9478C38.7834 15.049 38.5224 15.0995 38.2469 15.0995H34.2891C33.9992 15.0995 33.7237 15.0453 33.4627 14.9369C33.2017 14.8213 32.9733 14.6696 32.7775 14.4817C32.589 14.2866 32.4368 14.0589 32.3208 13.7988C32.212 13.5386 32.1577 13.2604 32.1577 12.9641V3.85267Z" fill="#FFFFF5"/>
  <path d="M49.669 12.9641C49.9153 12.9641 50.115 12.7645 50.115 12.5182V10.7327C50.115 10.4864 49.9153 10.2868 49.669 10.2868H45.0364C44.7392 10.2868 44.46 10.2326 44.199 10.1242C43.938 10.0085 43.7097 9.85679 43.5139 9.6689C43.3254 9.47379 43.1732 9.24616 43.0572 8.98601C42.9484 8.72586 42.894 8.44765 42.894 8.15136V5.69078C42.894 5.3945 42.9484 5.11628 43.0572 4.85613C43.1732 4.59598 43.3254 4.37196 43.5139 4.18408C43.7097 3.98897 43.938 3.83721 44.199 3.72882C44.46 3.61319 44.7392 3.55538 45.0364 3.55538H51.8114V5.69078H45.4823C45.236 5.69078 45.0364 5.89043 45.0364 6.13671V7.70543C45.0364 7.95171 45.236 8.15136 45.4823 8.15136H50.115C50.4122 8.15136 50.6877 8.20918 50.9414 8.3248C51.2024 8.43319 51.4308 8.58495 51.6266 8.78006C51.8223 8.96795 51.9746 9.19196 52.0833 9.45211C52.1993 9.71226 52.2573 9.99048 52.2573 10.2868V12.9641C52.2573 13.2604 52.1993 13.5386 52.0833 13.7988C51.9746 14.0589 51.8223 14.2866 51.6266 14.4817C51.4308 14.6696 51.2024 14.8213 50.9414 14.9369C50.6877 15.0453 50.4122 15.0995 50.115 15.0995H43.1913C43.0271 15.0995 42.894 14.9664 42.894 14.8022V13.2614C42.894 13.0972 43.0271 12.9641 43.1913 12.9641H49.669Z" fill="#FFFFF5"/>
  <path d="M51.5918 3.55538H54.1219C54.2861 3.55538 54.4192 3.42228 54.4192 3.2581V0.297286C54.4192 0.1331 54.5523 0 54.7165 0H56.2643C56.4285 0 56.5616 0.1331 56.5616 0.297287V3.2581C56.5616 3.42228 56.6947 3.55538 56.8588 3.55538H60.0705C60.2347 3.55538 60.3678 3.68848 60.3678 3.85267V5.39349C60.3678 5.55768 60.2347 5.69078 60.0705 5.69078H56.8588C56.6947 5.69078 56.5616 5.82388 56.5616 5.98807V12.6668C56.5616 12.831 56.6947 12.9641 56.8588 12.9641H60.0705C60.2347 12.9641 60.3678 13.0972 60.3678 13.2614V14.8022C60.3678 14.9664 60.2347 15.0995 60.0705 15.0995H56.5616C56.2716 15.0995 55.9961 15.0453 55.7351 14.9369C55.4741 14.8213 55.2457 14.6696 55.05 14.4817C54.8542 14.2866 54.6983 14.0589 54.5823 13.7988C54.4736 13.5386 54.4192 13.2604 54.4192 12.9641V5.98807C54.4192 5.82388 54.2861 5.69078 54.1219 5.69078H51.5918V3.55538Z" fill="#FFFFF5"/>
  <path d="M70.732 8.27637C70.732 9.45852 69.7736 10.4168 68.5915 10.4168H63.6598C63.3314 10.4168 63.0652 10.683 63.0652 11.0114V12.3696C63.0652 12.6979 63.3314 12.9641 63.6598 12.9641H70.4347C70.5989 12.9641 70.732 13.0972 70.732 13.2614V14.8022C70.732 14.9664 70.5989 15.0995 70.4347 15.0995H63.0652C62.7752 15.0995 62.4997 15.0453 62.2387 14.9369C61.9777 14.8213 61.7493 14.6696 61.5536 14.4817C61.3651 14.2866 61.2128 14.0589 61.0968 13.7988C60.9881 13.5386 60.9337 13.2604 60.9337 12.9641V5.69078C60.9337 5.3945 60.9881 5.11628 61.0968 4.85613C61.2128 4.59598 61.3651 4.37196 61.5536 4.18408C61.7493 3.98897 61.9777 3.83721 62.2387 3.72882C62.4997 3.61319 62.7752 3.55538 63.0652 3.55538H68.5896C68.8869 3.55538 69.166 3.61319 69.427 3.72882C69.688 3.83721 69.9127 3.98897 70.1012 4.18408C70.297 4.37196 70.4492 4.59598 70.558 4.85613C70.674 5.11628 70.732 5.3945 70.732 5.69078V8.27637ZM63.5111 5.69078C63.2648 5.69078 63.0652 5.89043 63.0652 6.13671V7.83551C63.0652 8.08179 63.2648 8.28144 63.5111 8.28144H68.1437C68.39 8.28144 68.5896 8.08179 68.5896 7.83551V6.13671C68.5896 5.89043 68.39 5.69078 68.1437 5.69078H63.5111Z" fill="#FFFFF5"/>
  <path d="M74.3347 5.69078C73.8422 5.69078 73.4429 6.09008 73.4429 6.58264V14.8022C73.4429 14.9664 73.3098 15.0995 73.1456 15.0995H71.6087C71.4445 15.0995 71.3114 14.9664 71.3114 14.8022V3.85267C71.3114 3.68848 71.4445 3.55538 71.6087 3.55538H73.1456C73.3098 3.55538 73.4429 3.68848 73.4429 3.85267V5.59322C73.4574 5.31139 73.5226 5.04763 73.6386 4.80193C73.7546 4.54901 73.9069 4.33222 74.0954 4.15156C74.2911 3.96367 74.5159 3.81915 74.7696 3.71798C75.0234 3.60958 75.2952 3.55538 75.5852 3.55538H77.8581C78.1553 3.55538 78.4308 3.61319 78.6845 3.72882C78.9455 3.83721 79.1739 3.98897 79.3697 4.18408C79.5654 4.37196 79.7177 4.59598 79.8264 4.85613C79.9424 5.11628 80.0004 5.3945 80.0004 5.69078V7.34462C80.0004 7.5088 79.8673 7.6419 79.7031 7.6419H78.1554C77.9912 7.6419 77.8581 7.5088 77.8581 7.34462V5.98807C77.8581 5.82388 77.725 5.69078 77.5608 5.69078H74.3347Z" fill="#FFFFF5"/>
  <path d="M6.9483 12.1641C6.9483 11.8838 6.72108 11.6566 6.44079 11.6566H5.79567C5.51538 11.6566 5.28816 11.8838 5.28816 12.1641L5.28816 14.5673C5.28816 14.8476 5.51538 15.0748 5.79567 15.0748L6.44079 15.0748C6.72108 15.0748 6.9483 14.8476 6.9483 14.5673V12.1641Z" fill="#FFFFF5"/>
  <path d="M3.7806 14.3213L2.64293 13.655C2.39095 13.5075 2.31517 13.1782 2.47727 12.9354L4.08577 10.5254C4.17998 10.3842 4.33852 10.2995 4.50823 10.2996L7.74287 10.3018C7.91219 10.3019 8.07031 10.3864 8.16442 10.5272L9.77403 12.9344C9.93664 13.1776 9.86052 13.5075 9.6078 13.6549L8.47033 14.3182C8.22125 14.4635 7.90134 14.3723 7.76628 14.1175L6.61155 11.9395C6.52355 11.7735 6.35104 11.6697 6.16316 11.6697L6.08711 11.6697C5.89901 11.6697 5.72634 11.7737 5.63843 11.94L4.48574 14.1205C4.3507 14.376 4.02994 14.4673 3.7806 14.3213Z" fill="#FFFFF5"/>
  <path d="M8.61668 6.70632C8.38298 6.86107 8.31898 7.17597 8.47373 7.40967L8.82991 7.94755C8.98466 8.18125 9.29956 8.24524 9.53326 8.09049L11.537 6.76363C11.7707 6.60887 11.8347 6.29397 11.68 6.06028L11.3238 5.5224C11.169 5.2887 10.8541 5.2247 10.6204 5.37945L8.61668 6.70632Z" fill="#FFFFF5"/>
  <path d="M12.1684 8.16272L12.241 9.4791C12.2571 9.77067 12.0244 10.0156 11.7324 10.0146L8.83499 10.004C8.66528 10.0034 8.50711 9.91801 8.4135 9.77645L6.62941 7.07831C6.53602 6.93707 6.51922 6.75857 6.58461 6.60238L7.70299 3.93129C7.81597 3.66144 8.1331 3.54273 8.3955 3.67208L9.57657 4.25425C9.83519 4.38173 9.93579 4.69881 9.79795 4.95207L8.61948 7.11739C8.52967 7.28241 8.53837 7.48355 8.6421 7.6402L8.68409 7.70361C8.78794 7.86044 8.97001 7.94697 9.1572 7.92845L11.6117 7.68563C11.8992 7.65719 12.1524 7.87421 12.1684 8.16272Z" fill="#FFFFF5"/>
  <path d="M3.62512 6.70632C3.85881 6.86107 3.92281 7.17597 3.76806 7.40967L3.41188 7.94755C3.25713 8.18125 2.94223 8.24524 2.70853 8.09049L0.704773 6.76363C0.471076 6.60887 0.407078 6.29397 0.56183 6.06028L0.918008 5.5224C1.07276 5.2887 1.38766 5.2247 1.62136 5.37945L3.62512 6.70632Z" fill="#FFFFF5"/>
  <path d="M0.0734246 8.16272L0.000786919 9.4791C-0.0153015 9.77067 0.217366 10.0156 0.509373 10.0146L3.4068 10.004C3.57651 10.0034 3.73468 9.91801 3.82829 9.77645L5.61238 7.07831C5.70577 6.93707 5.72257 6.75857 5.65718 6.60238L4.53881 3.93129C4.42582 3.66144 4.10869 3.54273 3.84629 3.67208L2.66523 4.25425C2.4066 4.38173 2.30601 4.69881 2.44384 4.95207L3.62231 7.11739C3.71213 7.28241 3.70342 7.48355 3.59969 7.6402L3.55771 7.70361C3.45386 7.86044 3.27178 7.94697 3.0846 7.92845L0.630128 7.68563C0.342583 7.65719 0.0893445 7.87421 0.0734246 8.16272Z" fill="#FFFFF5"/>
  <path d="M7.20151 8.87556C7.20151 9.47236 6.71771 9.95616 6.12091 9.95616C5.52412 9.95616 5.04032 9.47236 5.04032 8.87556C5.04032 8.27876 5.52412 7.79496 6.12091 7.79496C6.71771 7.79496 7.20151 8.27876 7.20151 8.87556Z" fill="#FFFFF5"/>
</svg>