<svg xmlns="http://www.w3.org/2000/svg" width="14" height="15" viewBox="0 0 14 15" fill="none">
  <path fill-rule="evenodd" clip-rule="evenodd" d="M6.05615 0.490074C6.29247 0.254055 6.60867 0.115177 6.94237 0.100841C7.27606 0.0865046 7.603 0.19775 7.8587 0.412631L7.94416 0.490742L9.21263 1.75854H11.0058C11.3426 1.7586 11.6669 1.8859 11.9137 2.11494C12.1606 2.34397 12.3118 2.65783 12.3371 2.99363L12.3411 3.09377V4.88698L13.6095 6.15545C13.8457 6.39181 13.9847 6.70815 13.9991 7.042C14.0134 7.37584 13.902 7.70293 13.687 7.95868L13.6089 8.04346L12.3404 9.31193V11.1051C12.3405 11.442 12.2133 11.7665 11.9842 12.0135C11.7552 12.2605 11.4412 12.4118 11.1053 12.437L11.0058 12.4404H9.21329L7.94483 13.7088C7.70846 13.945 7.39213 14.084 7.05828 14.0984C6.72443 14.1127 6.39734 14.0014 6.1416 13.7863L6.05681 13.7088L4.78835 12.4404H2.99447C2.6576 12.4405 2.33315 12.3133 2.08614 12.0842C1.83914 11.8551 1.68784 11.5412 1.66257 11.2053L1.65924 11.1051V9.31193L0.390769 8.04346C0.154563 7.8071 0.0155685 7.49076 0.00123068 7.15692C-0.0131071 6.82307 0.0982547 6.49598 0.313326 6.24024L0.390769 6.15545L1.65924 4.88698V3.09377C1.6593 2.75702 1.7866 2.43273 2.01563 2.18587C2.24467 1.93901 2.55852 1.7878 2.89432 1.76255L2.99447 1.75854H4.78768L6.05615 0.490074ZM7.00015 5.09661C6.46897 5.09661 5.95953 5.30763 5.58393 5.68323C5.20832 6.05884 4.99731 6.56827 4.99731 7.09946C4.99731 7.63064 5.20832 8.14007 5.58393 8.51568C5.95953 8.89129 6.46897 9.1023 7.00015 9.1023C7.53134 9.1023 8.04077 8.89129 8.41638 8.51568C8.79198 8.14007 9.003 7.63064 9.003 7.09946C9.003 6.56827 8.79198 6.05884 8.41638 5.68323C8.04077 5.30763 7.53134 5.09661 7.00015 5.09661Z" fill="#FFFFF5"/>
</svg>