<svg xmlns="http://www.w3.org/2000/svg" width="20" height="21" viewBox="0 0 20 21" fill="none">
  <path fill-rule="evenodd" clip-rule="evenodd" d="M10.0002 2.59961C8.89509 2.59961 7.83529 3.0386 7.05388 3.82C6.27248 4.6014 5.8335 5.66121 5.8335 6.76628C5.8335 7.87134 6.27248 8.93115 7.05388 9.71255C7.10885 9.76752 7.1652 9.82079 7.22284 9.87234C6.50907 10.1994 5.85197 10.653 5.28612 11.2189C4.03587 12.4691 3.3335 14.1648 3.3335 15.9329V16.7663C3.3335 17.2265 3.70659 17.5996 4.16683 17.5996C4.62707 17.5996 5.00016 17.2265 5.00016 16.7663V15.9329C5.00016 14.6069 5.52695 13.3351 6.46463 12.3974C7.40231 11.4597 8.67408 10.9329 10.0002 10.9329C11.3262 10.9329 12.598 11.4597 13.5357 12.3974C14.4734 13.3351 15.0002 14.6069 15.0002 15.9329V16.7663C15.0002 17.2265 15.3733 17.5996 15.8335 17.5996C16.2937 17.5996 16.6668 17.2265 16.6668 16.7663V15.9329C16.6668 14.1648 15.9644 12.4691 14.7142 11.2189C14.1484 10.653 13.4913 10.1994 12.7775 9.87234C12.8351 9.82079 12.8915 9.76752 12.9464 9.71255C13.7278 8.93115 14.1668 7.87134 14.1668 6.76628C14.1668 5.66121 13.7278 4.6014 12.9464 3.82C12.165 3.0386 11.1052 2.59961 10.0002 2.59961ZM8.2324 4.99851C8.70124 4.52967 9.33712 4.26628 10.0002 4.26628C10.6632 4.26628 11.2991 4.52967 11.7679 4.99851C12.2368 5.46735 12.5002 6.10323 12.5002 6.76628C12.5002 7.42932 12.2368 8.0652 11.7679 8.53404C11.2991 9.00288 10.6632 9.26628 10.0002 9.26628C9.33712 9.26628 8.70124 9.00288 8.2324 8.53404C7.76355 8.0652 7.50016 7.42932 7.50016 6.76628C7.50016 6.10323 7.76355 5.46735 8.2324 4.99851Z" fill="#A3A393"/>
</svg>