<svg xmlns="http://www.w3.org/2000/svg" width="24" height="25" viewBox="0 0 24 25" fill="none">
  <path d="M15.1 14.4C16.0019 14.4001 16.869 14.7483 17.5204 15.3721C18.1719 15.9958 18.5574 16.847 18.5965 17.7481L18.6 17.9V18.6C18.6001 18.9532 18.4667 19.2934 18.2266 19.5524C17.9864 19.8114 17.6572 19.97 17.305 19.9965L17.2 20H7.4C7.0468 20.0001 6.7066 19.8667 6.44762 19.6266C6.18863 19.3864 6.02999 19.0572 6.0035 18.705L6 18.6V17.9C6.00005 16.9981 6.34828 16.131 6.97206 15.4796C7.59584 14.8281 8.44703 14.4426 9.3481 14.4035L9.5 14.4H15.1ZM12.3 6C13.2283 6 14.1185 6.36875 14.7749 7.02513C15.4313 7.6815 15.8 8.57174 15.8 9.5C15.8 10.4283 15.4313 11.3185 14.7749 11.9749C14.1185 12.6313 13.2283 13 12.3 13C11.3717 13 10.4815 12.6313 9.82513 11.9749C9.16875 11.3185 8.8 10.4283 8.8 9.5C8.8 8.57174 9.16875 7.6815 9.82513 7.02513C10.4815 6.36875 11.3717 6 12.3 6Z" fill="#A3A393"/>
</svg>