<svg xmlns="http://www.w3.org/2000/svg" width="32" height="32" viewBox="0 0 32 32" fill="none">
  <g filter="url(#filter0_b_1834_2731)">
    <rect width="32" height="32" rx="8" fill="white" fill-opacity="0.01"/>
    <rect x="0.5" y="0.5" width="31" height="31" rx="7.5" stroke="#E6E8B2"/>
    <path d="M24 9C24 8.73478 23.8946 8.48043 23.7071 8.29289C23.5196 8.10536 23.2652 8 23 8H18C17.7348 8 17.4804 8.10536 17.2929 8.29289C17.1054 8.48043 17 8.73478 17 9C17 9.26522 17.1054 9.51957 17.2929 9.70711C17.4804 9.89464 17.7348 10 18 10H20.57L17.29 13.29C17.1963 13.383 17.1219 13.4936 17.0711 13.6154C17.0203 13.7373 16.9942 13.868 16.9942 14C16.9942 14.132 17.0203 14.2627 17.0711 14.3846C17.1219 14.5064 17.1963 14.617 17.29 14.71C17.383 14.8037 17.4936 14.8781 17.6154 14.9289C17.7373 14.9797 17.868 15.0058 18 15.0058C18.132 15.0058 18.2627 14.9797 18.3846 14.9289C18.5064 14.8781 18.617 14.8037 18.71 14.71L22 11.42V14C22 14.2652 22.1054 14.5196 22.2929 14.7071C22.4804 14.8946 22.7348 15 23 15C23.2652 15 23.5196 14.8946 23.7071 14.7071C23.8946 14.5196 24 14.2652 24 14V9ZM14.71 17.29C14.617 17.1963 14.5064 17.1219 14.3846 17.0711C14.2627 17.0203 14.132 16.9942 14 16.9942C13.868 16.9942 13.7373 17.0203 13.6154 17.0711C13.4936 17.1219 13.383 17.1963 13.29 17.29L10 20.57V18C10 17.7348 9.89464 17.4804 9.70711 17.2929C9.51957 17.1054 9.26522 17 9 17C8.73478 17 8.48043 17.1054 8.29289 17.2929C8.10536 17.4804 8 17.7348 8 18V23C8 23.2652 8.10536 23.5196 8.29289 23.7071C8.48043 23.8946 8.73478 24 9 24H14C14.2652 24 14.5196 23.8946 14.7071 23.7071C14.8946 23.5196 15 23.2652 15 23C15 22.7348 14.8946 22.4804 14.7071 22.2929C14.5196 22.1054 14.2652 22 14 22H11.42L14.71 18.71C14.8037 18.617 14.8781 18.5064 14.9289 18.3846C14.9797 18.2627 15.0058 18.132 15.0058 18C15.0058 17.868 14.9797 17.7373 14.9289 17.6154C14.8781 17.4936 14.8037 17.383 14.71 17.29Z" fill="#F4F85A"/>
  </g>
  <defs>
    <filter id="filter0_b_1834_2731" x="-40" y="-40" width="112" height="112" filterUnits="userSpaceOnUse" color-interpolation-filters="sRGB">
      <feFlood flood-opacity="0" result="BackgroundImageFix"/>
      <feGaussianBlur in="BackgroundImageFix" stdDeviation="20"/>
      <feComposite in2="SourceAlpha" operator="in" result="effect1_backgroundBlur_1834_2731"/>
      <feBlend mode="normal" in="SourceGraphic" in2="effect1_backgroundBlur_1834_2731" result="shape"/>
    </filter>
  </defs>
</svg>