<svg xmlns="http://www.w3.org/2000/svg" width="26" height="25" viewBox="0 0 26 25" fill="none">
  <path fill-rule="evenodd" clip-rule="evenodd" d="M21.6667 1.38614C21.6667 1.01851 21.5145 0.665943 21.2436 0.405991C20.9727 0.146039 20.6053 0 20.2222 0C19.8391 0 19.4717 0.146039 19.2008 0.405991C18.93 0.665943 18.7778 1.01851 18.7778 1.38614V2.77228H1.44444C1.06135 2.77228 0.693954 2.91832 0.423068 3.17827C0.152182 3.43822 0 3.79079 0 4.15842C0 4.52605 0.152182 4.87862 0.423068 5.13857C0.693954 5.39852 1.06135 5.54456 1.44444 5.54456H18.7778V6.9307C18.7778 7.29833 18.93 7.6509 19.2008 7.91085C19.4717 8.1708 19.8391 8.31684 20.2222 8.31684C20.6053 8.31684 20.9727 8.1708 21.2436 7.91085C21.5145 7.6509 21.6667 7.29833 21.6667 6.9307V5.54456H24.5556C24.9386 5.54456 25.306 5.39852 25.5769 5.13857C25.8478 4.87862 26 4.52605 26 4.15842C26 3.79079 25.8478 3.43822 25.5769 3.17827C25.306 2.91832 24.9386 2.77228 24.5556 2.77228H21.6667V1.38614ZM1.44444 11.0891C1.06135 11.0891 0.693954 11.2352 0.423068 11.4951C0.152182 11.7551 0 12.1076 0 12.4753C0 12.8429 0.152182 13.1955 0.423068 13.4554C0.693954 13.7154 1.06135 13.8614 1.44444 13.8614H4.33333V15.2475C4.33333 15.6152 4.48552 15.9677 4.7564 16.2277C5.02729 16.4876 5.39469 16.6337 5.77778 16.6337C6.16087 16.6337 6.52827 16.4876 6.79915 16.2277C7.07004 15.9677 7.22222 15.6152 7.22222 15.2475V13.8614H24.5556C24.9386 13.8614 25.306 13.7154 25.5769 13.4554C25.8478 13.1955 26 12.8429 26 12.4753C26 12.1076 25.8478 11.7551 25.5769 11.4951C25.306 11.2352 24.9386 11.0891 24.5556 11.0891H7.22222V9.70298C7.22222 9.33535 7.07004 8.98278 6.79915 8.72283C6.52827 8.46288 6.16087 8.31684 5.77778 8.31684C5.39469 8.31684 5.02729 8.46288 4.7564 8.72283C4.48552 8.98278 4.33333 9.33535 4.33333 9.70298V11.0891H1.44444ZM0 20.7921C0 20.4245 0.152182 20.0719 0.423068 19.812C0.693954 19.552 1.06135 19.406 1.44444 19.406H18.7778V18.0198C18.7778 17.6522 18.93 17.2996 19.2008 17.0397C19.4717 16.7797 19.8391 16.6337 20.2222 16.6337C20.6053 16.6337 20.9727 16.7797 21.2436 17.0397C21.5145 17.2996 21.6667 17.6522 21.6667 18.0198V19.406H24.5556C24.9386 19.406 25.306 19.552 25.5769 19.812C25.8478 20.0719 26 20.4245 26 20.7921C26 21.1597 25.8478 21.5123 25.5769 21.7723C25.306 22.0322 24.9386 22.1782 24.5556 22.1782H21.6667V23.5644C21.6667 23.932 21.5145 24.2846 21.2436 24.5445C20.9727 24.8045 20.6053 24.9505 20.2222 24.9505C19.8391 24.9505 19.4717 24.8045 19.2008 24.5445C18.93 24.2846 18.7778 23.932 18.7778 23.5644V22.1782H1.44444C1.06135 22.1782 0.693954 22.0322 0.423068 21.7723C0.152182 21.5123 0 21.1597 0 20.7921Z" fill="#E6E8B2"/>
</svg>