<svg
          
          xmlns="http://www.w3.org/2000/svg"
          width="7"
          height="13"
          viewBox="0 0 7 13"
          fill="none"
        >
          <path
            d="M0.379709 6.8605L5.95271 12.1705C6.0457 12.2591 6.16924 12.3086 6.29771 12.3086C6.42618 12.3086 6.54972 12.2591 6.64271 12.1705L6.64871 12.1645C6.69394 12.1215 6.72996 12.0698 6.75458 12.0125C6.77919 11.9551 6.79188 11.8934 6.79188 11.831C6.79188 11.7686 6.77919 11.7069 6.75458 11.6495C6.72996 11.5922 6.69394 11.5405 6.64871 11.4975L1.40071 6.4975L6.64871 1.4995C6.69394 1.45653 6.72996 1.4048 6.75458 1.34747C6.77919 1.29013 6.79188 1.22839 6.79188 1.166C6.79188 1.10361 6.77919 1.04187 6.75458 0.984532C6.72996 0.927199 6.69394 0.875472 6.64871 0.832499L6.64271 0.826499C6.54972 0.737854 6.42618 0.688403 6.29771 0.688403C6.16924 0.688403 6.0457 0.737854 5.95271 0.826499L0.379709 6.1365C0.330697 6.1832 0.291678 6.23936 0.265017 6.30159C0.238356 6.36381 0.224609 6.4308 0.224609 6.4985C0.224609 6.5662 0.238357 6.63319 0.265017 6.69541C0.291678 6.75764 0.330697 6.8138 0.379709 6.8605Z"
            fill="#FFFFF5"
          />
        </svg>