<svg xmlns="http://www.w3.org/2000/svg" width="16" height="17" viewBox="0 0 16 17" fill="none">
  <path fill-rule="evenodd" clip-rule="evenodd" d="M10 1.08594H7.296C6.07067 1.08594 5.1 1.08594 4.34067 1.18794C3.55933 1.29327 2.92667 1.5146 2.42733 2.01327C1.92867 2.5126 1.70733 3.14527 1.602 3.9266C1.5 4.6866 1.5 5.6566 1.5 6.88194V10.9193C1.50002 11.5149 1.71262 12.0909 2.09956 12.5437C2.48649 12.9965 3.02234 13.2964 3.61067 13.3893C3.702 13.8986 3.87867 14.3333 4.232 14.6873C4.63333 15.0886 5.13867 15.2606 5.73867 15.3419C6.31667 15.4193 7.052 15.4193 7.96333 15.4193H10.0367C10.948 15.4193 11.6833 15.4193 12.2613 15.3419C12.8613 15.2606 13.3667 15.0886 13.768 14.6873C14.1693 14.2859 14.3413 13.7806 14.4227 13.1806C14.5 12.6026 14.5 11.8673 14.5 10.9559V7.54927C14.5 6.63794 14.5 5.9026 14.4227 5.3246C14.3413 4.7246 14.1693 4.21927 13.768 3.81794C13.414 3.4646 12.9793 3.28794 12.47 3.1966C12.3771 2.60828 12.0773 2.07243 11.6245 1.6855C11.1717 1.29856 10.5956 1.08595 10 1.08594ZM11.42 3.09994C11.3186 2.80394 11.1272 2.54704 10.8726 2.36522C10.618 2.1834 10.3129 2.08575 10 2.08594H7.33333C6.062 2.08594 5.15933 2.08727 4.47333 2.17927C3.80333 2.26927 3.41667 2.4386 3.13467 2.7206C2.85267 3.0026 2.68333 3.38927 2.59333 4.05994C2.50133 4.74527 2.5 5.64794 2.5 6.91927V10.9193C2.49981 11.2321 2.59746 11.5373 2.77928 11.7919C2.96111 12.0465 3.218 12.2379 3.514 12.3393C3.5 11.9326 3.5 11.4726 3.5 10.9559V7.54927C3.5 6.63794 3.5 5.9026 3.578 5.3246C3.658 4.7246 3.83133 4.21927 4.232 3.81794C4.63333 3.4166 5.13867 3.2446 5.73867 3.16394C6.31667 3.08594 7.052 3.08594 7.96333 3.08594H10.0367C10.5533 3.08594 11.0133 3.08594 11.42 3.09994ZM4.93867 4.52594C5.12333 4.34127 5.382 4.22127 5.872 4.15527C6.37467 4.08794 7.04267 4.0866 7.99933 4.0866H9.99933C10.956 4.0866 11.6233 4.08794 12.1273 4.15527C12.6167 4.22127 12.8753 4.34194 13.06 4.52594C13.2447 4.7106 13.3647 4.96927 13.4307 5.45927C13.498 5.96194 13.4993 6.62994 13.4993 7.5866V10.9199C13.4993 11.8766 13.498 12.5439 13.4307 13.0479C13.3647 13.5373 13.244 13.7959 13.06 13.9806C12.8753 14.1653 12.6167 14.2853 12.1267 14.3513C11.6233 14.4186 10.956 14.4199 9.99933 14.4199H7.99933C7.04267 14.4199 6.37467 14.4186 5.87133 14.3513C5.382 14.2853 5.12333 14.1646 4.93867 13.9806C4.754 13.7959 4.634 13.5373 4.568 13.0473C4.50067 12.5439 4.49933 11.8766 4.49933 10.9199V7.5866C4.49933 6.62994 4.50067 5.96194 4.568 5.4586C4.634 4.96927 4.75467 4.7106 4.93867 4.52594Z" fill="#F4F85A"/>
</svg>