<svg width="16" height="17" viewBox="0 0 16 17" fill="none" xmlns="http://www.w3.org/2000/svg">
<g id="mingcute:warning-fill" clip-path="url(#clip0_215_2577)">
<g id="Group">
<path id="Vector" d="M7.9987 2.3125C11.6807 2.3125 14.6654 5.29717 14.6654 8.97917C14.6654 12.6612 11.6807 15.6458 7.9987 15.6458C4.3167 15.6458 1.33203 12.6612 1.33203 8.97917C1.33203 5.29717 4.3167 2.3125 7.9987 2.3125ZM7.9987 10.9792C7.82189 10.9792 7.65232 11.0494 7.52729 11.1744C7.40227 11.2995 7.33203 11.469 7.33203 11.6458C7.33203 11.8226 7.40227 11.9922 7.52729 12.1172C7.65232 12.2423 7.82189 12.3125 7.9987 12.3125C8.17551 12.3125 8.34508 12.2423 8.4701 12.1172C8.59513 11.9922 8.66536 11.8226 8.66536 11.6458C8.66536 11.469 8.59513 11.2995 8.4701 11.1744C8.34508 11.0494 8.17551 10.9792 7.9987 10.9792ZM7.9987 4.97917C7.83541 4.97919 7.67781 5.03914 7.55578 5.14764C7.43376 5.25615 7.3558 5.40567 7.3367 5.56783L7.33203 5.64583V9.64583C7.33222 9.81575 7.39728 9.97919 7.51393 10.1027C7.63058 10.2263 7.79 10.3007 7.95963 10.3106C8.12926 10.3206 8.29628 10.2654 8.42659 10.1563C8.55689 10.0473 8.64063 9.89256 8.6607 9.72383L8.66536 9.64583V5.64583C8.66536 5.46902 8.59513 5.29945 8.4701 5.17443C8.34508 5.0494 8.17551 4.97917 7.9987 4.97917Z" fill="#A3A393"/>
</g>
</g>
<defs>
<clipPath id="clip0_215_2577">
<rect width="16" height="16" fill="white" transform="translate(0 0.980469)"/>
</clipPath>
</defs>
</svg>
