<svg version="1.1" xmlns="http://www.w3.org/2000/svg" width="483" height="483">
  <g transform="rotate(180 241.5 241.5)">
<path d="M0 0 C159.39 0 318.78 0 483 0 C483 159.39 483 318.78 483 483 C323.61 483 164.22 483 0 483 C0 323.61 0 164.22 0 0 Z " fill="#424242" transform="translate(0,0)"/>
<path d="M0 0 C95.37 0 190.74 0 289 0 C289 159.39 289 318.78 289 483 C272.5 483 256 483 239 483 C239 482.67 239 482.34 239 482 C239.65484375 481.91363281 240.3096875 481.82726562 240.984375 481.73828125 C257.82613482 479.14541145 269.62427732 471.29244493 279.66015625 457.76171875 C287.06228496 446.64943216 287.45109733 433.67960463 287.41992188 420.71142578 C287.42728445 419.2377967 287.43587692 417.76417334 287.44558716 416.29055786 C287.46757965 412.33170894 287.47074525 408.37306948 287.46883965 404.41416788 C287.46871893 401.08958605 287.47732374 397.765047 287.48561716 394.44047725 C287.50477034 386.58740428 287.5077644 378.73443757 287.50097656 370.88134766 C287.4943387 362.8230141 287.51720845 354.76513859 287.55429029 346.70689785 C287.58513416 339.74758557 287.59633161 332.78841955 287.59245348 325.82904041 C287.59040144 321.69040186 287.59562303 317.55212029 287.62034607 313.41354752 C287.64285639 309.51766593 287.64053789 305.62252206 287.62041855 301.72663498 C287.6170511 300.3110622 287.62190924 298.89543729 287.63640213 297.47993469 C287.79509417 280.80807455 283.55574089 266.87822593 271.80078125 254.7265625 C259.73086947 243.39390537 247.35266573 240.53646607 231.13378906 240.63110352 C229.65750856 240.62863074 228.18122983 240.62478752 226.70495605 240.61968994 C223.5435218 240.61139688 220.38226797 240.6121212 217.22083282 240.61987495 C212.20896707 240.63153717 207.1973294 240.6192286 202.18548584 240.60325623 C189.73695224 240.56719283 177.28842491 240.56082504 164.83984375 240.56335449 C155.16099707 240.5650712 145.48233905 240.55778669 135.80354476 240.52337593 C130.83470289 240.50670084 125.86632351 240.50827314 120.8974843 240.52419865 C117.7894366 240.53004728 114.68160229 240.51916381 111.57359314 240.50395203 C110.14751531 240.50026538 108.72139991 240.50321716 107.29535675 240.51382256 C89.08005535 240.64011259 74.52972821 235.39388405 60.99609375 223.24609375 C58.91839272 220.90817185 57.96076566 218.95500357 57 216 C56.34 216 55.68 216 55 216 C54.20688633 214.27149655 53.4155741 212.54216646 52.625 210.8125 C52.18414062 209.84957031 51.74328125 208.88664063 51.2890625 207.89453125 C50.86367187 206.93933594 50.43828125 205.98414063 50 205 C49.63648438 204.22011719 49.27296875 203.44023437 48.8984375 202.63671875 C46.20341468 194.72741265 46.85451416 186.04782794 46.8581543 177.80395508 C46.8551178 176.37560927 46.851595 174.94726442 46.84762573 173.5189209 C46.83977311 170.45518196 46.83460558 167.39145447 46.83133507 164.32770729 C46.82538898 159.47174709 46.80881436 154.61585879 46.78999329 149.75993347 C46.78365683 148.09233193 46.7773312 146.42473034 46.77101612 144.75712872 C46.76785031 143.92228085 46.7646845 143.08743298 46.76142275 142.2272867 C46.71947569 130.93368228 46.68638726 119.64011273 46.67407227 108.34643555 C46.66566311 100.71274441 46.64307031 93.07923325 46.6047166 85.44563216 C46.58505734 81.41493874 46.5725175 77.38451369 46.57755089 73.3537693 C46.58223448 69.55733124 46.56819245 65.76140086 46.54053879 61.965065 C46.53045612 59.92920138 46.53981532 57.89326956 46.55003357 55.85740662 C46.38583175 39.48431013 41.24938563 26.42129686 29.9296875 14.7734375 C22.07221778 7.08084584 10.92121385 2.18067177 0 1 C0 0.67 0 0.34 0 0 Z " fill="#121212" transform="translate(194,0)"/>
<path d="M0 0 C0.33 0 0.66 0 1 0 C1.13535156 0.87140625 1.27070313 1.7428125 1.41015625 2.640625 C3.91261456 16.486562 10.3066577 28.14327931 21.49609375 36.96875 C32.85916231 44.75302919 44.46847483 46.6006976 57.99487305 46.51416016 C59.44853452 46.51963592 60.90219021 46.52688598 62.35583496 46.53575134 C65.45833394 46.55096309 68.5605029 46.55394327 71.66303062 46.54698563 C76.57746936 46.53610288 81.49156951 46.55369256 86.40596008 46.57479858 C94.18160137 46.60493486 101.95714073 46.61674171 109.73283559 46.62037504 C123.6559159 46.62704315 137.57892527 46.65621737 151.50191909 46.7054714 C156.37893307 46.72188193 161.25579877 46.72740346 166.13283765 46.72388101 C169.17288971 46.72344154 172.21288648 46.73104369 175.25292206 46.74055672 C176.6532678 46.74322094 178.05362501 46.74251969 179.45396614 46.73804665 C196.80730815 46.6864821 213.2375697 50.27745679 226.125 62.75 C229 65.69124424 229 65.69124424 229 68 C229.66 68 230.32 68 231 68 C232.30203187 70.49505641 233.59160266 72.99537682 234.875 75.5 C235.42220703 76.54414063 235.42220703 76.54414063 235.98046875 77.609375 C236.51220703 78.65351563 236.51220703 78.65351563 237.0546875 79.71875 C237.37937012 80.34716797 237.70405273 80.97558594 238.03857422 81.62304688 C241.35877607 89.83165156 241.28869295 97.74771785 241.27124023 106.48730469 C241.27563347 107.94683114 241.28093779 109.4063551 241.28707886 110.86587524 C241.29853518 113.99674764 241.30403507 117.12755274 241.30496025 120.25844574 C241.30691061 125.21917294 241.32501746 130.17976225 241.34571838 135.14044189 C241.39477837 147.46293342 241.42574213 159.78546226 241.44702148 172.10803223 C241.46358676 181.68587342 241.48651977 191.26359571 241.53004223 200.84135747 C241.55169778 205.76215525 241.55988779 210.68272646 241.55764949 215.60356855 C241.55932851 218.67872443 241.57345178 221.75373513 241.59086227 224.82883835 C241.59641245 226.24284422 241.59699315 227.65688084 241.59192467 229.07088852 C241.53578982 246.58219601 245.60556592 258.91106187 257.65234375 271.7421875 C266.2174589 279.97951954 276.60705657 283.42046564 288 286 C288 286.33 288 286.66 288 287 C192.96 287 97.92 287 0 287 C0 192.29 0 97.58 0 0 Z " fill="#121212" transform="translate(0,196)"/>
<path d="M0 0 C15.84 0 31.68 0 48 0 C48 0.33 48 0.66 48 1 C46.65808594 1.23783203 46.65808594 1.23783203 45.2890625 1.48046875 C30.22549867 4.38719056 18.82127279 10.58291862 9.7109375 23.16015625 C7.90275356 25.92723042 7.90275356 25.92723042 7 29 C6.34 29 5.68 29 5 29 C4.86722656 29.71542969 4.73445312 30.43085938 4.59765625 31.16796875 C4.01226465 33.94188322 3.26841556 36.60299275 2.4375 39.3125 C2.16808594 40.19550781 1.89867188 41.07851563 1.62109375 41.98828125 C1.41613281 42.65214844 1.21117188 43.31601562 1 44 C0.67 44 0.34 44 0 44 C0 29.48 0 14.96 0 0 Z " fill="#010101" transform="translate(0,0)"/>
<path d="M0 0 C1.54489166 4.44156353 0.14755121 7.17432193 -1.63671875 11.34375 C-3.87775246 15.71023402 -6.77153806 19.32504864 -10 23 C-10.52335937 23.61746094 -11.04671875 24.23492187 -11.5859375 24.87109375 C-16.40066914 30.14381206 -22.44424989 34.18907189 -29 37 C-31.36328125 36.6875 -31.36328125 36.6875 -33 36 C-30.87767021 34.82823482 -28.75242209 33.66245215 -26.625 32.5 C-26.02171875 32.16613281 -25.4184375 31.83226562 -24.796875 31.48828125 C-20.2265625 29 -20.2265625 29 -18 29 C-18 28.34 -18 27.68 -18 27 C-16.6796875 25.80859375 -16.6796875 25.80859375 -14.875 24.4375 C-7.11394684 17.94387689 -3.54680986 9.27506472 0 0 Z " fill="#626262" transform="translate(479,442)"/>
<path d="M0 0 C2.04510408 2.4541249 3.32694272 4.7023214 4.6875 7.625 C8.5423624 15.48129751 14.13493436 21.90919804 21.3359375 26.84375 C23 28 23 28 25 30 C17.67149292 29.17701257 12.78408917 23.22150445 8.16015625 17.87109375 C6.68867366 15.95779196 5.32145273 14.01934496 4 12 C3.5875 11.37996094 3.175 10.75992187 2.75 10.12109375 C0.58699538 6.6437634 -0.49807128 4.10908803 0 0 Z " fill="#606060" transform="translate(244,445)"/>
<path d="M0 0 C7.05445514 1.01010674 13.06371227 8.45384085 17.1875 13.875 C18.0846875 15.421875 18.0846875 15.421875 19 17 C18.67 17.99 18.34 18.98 18 20 C17.34 18.35 16.68 16.7 16 15 C15.34 15 14.68 15 14 15 C13.319375 13.989375 12.63875 12.97875 11.9375 11.9375 C9.18272748 7.86342377 5.74165697 5.25575694 1.79296875 2.3828125 C1.20128906 1.92648438 0.60960937 1.47015625 0 1 C0 0.67 0 0.34 0 0 Z " fill="#4F4F4F" transform="translate(456,248)"/>
<path d="M0 0 C3.2946755 6.38343379 5.83871824 13.15594111 8 20 C4.75361984 17.10144629 3.18263392 14.66142483 1.75 10.5625 C1.41484375 9.63566406 1.0796875 8.70882812 0.734375 7.75390625 C0.00882032 5.03307622 -0.14228057 2.79987835 0 0 Z " fill="#505050" transform="translate(241,196)"/>
<path d="M0 0 C4.43970742 1.39533662 6.90515679 3.56128532 10 7 C10.33 7.66 10.66 8.32 11 9 C6.39860359 7.51131293 3.49772906 5.25370145 0 2 C0 1.34 0 0.68 0 0 Z " fill="#4A4A4A" transform="translate(15,226)"/>
<path d="M0 0 C1.37095624 3.69037278 0.60010967 5.70883835 -0.9375 9.25 C-1.31777344 10.14203125 -1.69804687 11.0340625 -2.08984375 11.953125 C-2.39019531 12.62859375 -2.69054687 13.3040625 -3 14 C-3.33 14 -3.66 14 -4 14 C-3.46148032 8.72250715 -2.22656164 4.74354436 0 0 Z " fill="#5A5A5A" transform="translate(479,442)"/>
<path d="M0 0 C4.3890815 0.51035831 7.33708062 1.52214277 11 4 C8 5 8 5 5.95703125 4.22265625 C5.24933594 3.83980469 4.54164063 3.45695313 3.8125 3.0625 C3.09707031 2.68222656 2.38164062 2.30195313 1.64453125 1.91015625 C1.10183594 1.60980469 0.55914062 1.30945313 0 1 C0 0.67 0 0.34 0 0 Z " fill="#4F4F4F" transform="translate(266,233)"/>
<path d="M0 0 C1.31611677 0.95336021 2.62778961 1.91285774 3.9375 2.875 C4.66839844 3.40867188 5.39929688 3.94234375 6.15234375 4.4921875 C8 6 8 6 9 8 C5.08158173 6.69386058 2.67359191 5.16870152 0 2 C0 1.34 0 0.68 0 0 Z " fill="#4F4F4F" transform="translate(256,224)"/>
<path d="M0 0 C0.66 0 1.32 0 2 0 C3.2890625 1.75 3.2890625 1.75 4.625 4 C5.07101563 4.7425 5.51703125 5.485 5.9765625 6.25 C6.31429687 6.8275 6.65203125 7.405 7 8 C6.01 8 5.02 8 4 8 C0 3.77142857 0 3.77142857 0 0 Z " fill="#4D4D4D" transform="translate(249,216)"/>
<path d="M0 0 C4.39158329 1.4638611 4.87947433 3.97831338 7 8 C3.64379729 6.61122646 1.92701272 5.08322035 0 2 C0 1.34 0 0.68 0 0 Z " fill="#505050" transform="translate(8,217)"/>
    </g>
</svg>
