<svg width="41" height="40" viewBox="0 0 41 40" fill="none" xmlns="http://www.w3.org/2000/svg">
<g id="ic:round-warning">
<path id="Vector" d="M7.95085 34.9982H33.0509C35.6175 34.9982 37.2175 32.2148 35.9342 29.9982L23.3842 8.31484C22.1009 6.09818 18.9009 6.09818 17.6175 8.31484L5.06752 29.9982C3.78419 32.2148 5.38419 34.9982 7.95085 34.9982ZM20.5009 23.3315C19.5842 23.3315 18.8342 22.5815 18.8342 21.6648V18.3315C18.8342 17.4148 19.5842 16.6648 20.5009 16.6648C21.4175 16.6648 22.1675 17.4148 22.1675 18.3315V21.6648C22.1675 22.5815 21.4175 23.3315 20.5009 23.3315ZM22.1675 29.9982H18.8342V26.6648H22.1675V29.9982Z" fill="#A3A393"/>
</g>
</svg>
