<svg xmlns="http://www.w3.org/2000/svg" width="16" height="17" viewBox="0 0 16 17" fill="none">
  <path fill-rule="evenodd" clip-rule="evenodd" d="M8 5.75391C7.33696 5.75391 6.70107 6.0173 6.23223 6.48614C5.76339 6.95498 5.5 7.59087 5.5 8.25391C5.5 8.91695 5.76339 9.55283 6.23223 10.0217C6.70107 10.4905 7.33696 10.7539 8 10.7539C8.66304 10.7539 9.29893 10.4905 9.76777 10.0217C10.2366 9.55283 10.5 8.91695 10.5 8.25391C10.5 7.59087 10.2366 6.95498 9.76777 6.48614C9.29893 6.0173 8.66304 5.75391 8 5.75391ZM6.5 8.25391C6.5 7.85608 6.65804 7.47455 6.93934 7.19325C7.22064 6.91194 7.60218 6.75391 8 6.75391C8.39782 6.75391 8.77936 6.91194 9.06066 7.19325C9.34196 7.47455 9.5 7.85608 9.5 8.25391C9.5 8.65173 9.34196 9.03326 9.06066 9.31457C8.77936 9.59587 8.39782 9.75391 8 9.75391C7.60218 9.75391 7.22064 9.59587 6.93934 9.31457C6.65804 9.03326 6.5 8.65173 6.5 8.25391Z" fill="#121212"/>
  <path fill-rule="evenodd" clip-rule="evenodd" d="M7.9987 2.42188C4.98936 2.42188 2.96203 4.22454 1.78536 5.75321L1.7647 5.78054C1.49803 6.12654 1.25336 6.44454 1.08736 6.82054C0.909365 7.22388 0.832031 7.66321 0.832031 8.25521C0.832031 8.84721 0.909365 9.28654 1.08736 9.68988C1.25403 10.0659 1.4987 10.3845 1.7647 10.7299L1.78603 10.7572C2.96203 12.2859 4.98936 14.0885 7.9987 14.0885C11.008 14.0885 13.0354 12.2859 14.212 10.7572L14.2327 10.7299C14.4994 10.3845 14.744 10.0659 14.91 9.68988C15.088 9.28654 15.1654 8.84721 15.1654 8.25521C15.1654 7.66321 15.088 7.22388 14.91 6.82054C14.7434 6.44454 14.4987 6.12654 14.2327 5.78054L14.2114 5.75321C13.0354 4.22454 11.008 2.42188 7.9987 2.42188ZM2.5787 6.36321C3.66403 4.95187 5.43203 3.42188 7.9987 3.42188C10.5654 3.42188 12.3327 4.95187 13.4187 6.36321C13.712 6.74321 13.8827 6.96988 13.9954 7.22454C14.1007 7.46321 14.1654 7.75454 14.1654 8.25521C14.1654 8.75588 14.1007 9.04721 13.9954 9.28587C13.8827 9.54054 13.7114 9.76721 13.4194 10.1472C12.332 11.5585 10.5654 13.0885 7.9987 13.0885C5.43203 13.0885 3.6647 11.5585 2.5787 10.1472C2.28536 9.76721 2.1147 9.54054 2.00203 9.28587C1.8967 9.04721 1.83203 8.75588 1.83203 8.25521C1.83203 7.75454 1.8967 7.46321 2.00203 7.22454C2.1147 6.96988 2.2867 6.74321 2.5787 6.36321Z" fill="#121212"/>
</svg>
