<svg width="16" height="17" viewBox="0 0 16 17" fill="none" xmlns="http://www.w3.org/2000/svg">
<g id="solar:eye-linear">
<g id="Group">
<path id="Vector" d="M2.18203 11.1791C1.61536 10.4431 1.33203 10.0744 1.33203 8.98177C1.33203 7.88844 1.61536 7.5211 2.18203 6.78444C3.31336 5.3151 5.2107 3.64844 7.9987 3.64844C10.7867 3.64844 12.684 5.3151 13.8154 6.78444C14.382 7.52177 14.6654 7.8891 14.6654 8.98177C14.6654 10.0751 14.382 10.4424 13.8154 11.1791C12.684 12.6484 10.7867 14.3151 7.9987 14.3151C5.2107 14.3151 3.31336 12.6484 2.18203 11.1791Z" stroke="#A3A393"/>
<path id="Vector_2" d="M10 8.98047C10 9.5109 9.78929 10.0196 9.41421 10.3947C9.03914 10.7698 8.53043 10.9805 8 10.9805C7.46957 10.9805 6.96086 10.7698 6.58579 10.3947C6.21071 10.0196 6 9.5109 6 8.98047C6 8.45004 6.21071 7.94133 6.58579 7.56625C6.96086 7.19118 7.46957 6.98047 8 6.98047C8.53043 6.98047 9.03914 7.19118 9.41421 7.56625C9.78929 7.94133 10 8.45004 10 8.98047Z" stroke="#A3A393"/>
</g>
</g>
</svg>
