<svg xmlns="http://www.w3.org/2000/svg" width="13" height="12" viewBox="0 0 13 12" fill="none">
  <g clip-path="url(#clip0_215_3464)">
    <mask id="mask0_215_3464" style="mask-type:luminance" maskUnits="userSpaceOnUse" x="0" y="0" width="13" height="12">
      <path d="M6.5 11C7.15674 11.0009 7.80717 10.8719 8.41391 10.6206C9.02065 10.3693 9.57174 10.0005 10.0355 9.5355C10.5005 9.07174 10.8693 8.52065 11.1206 7.91391C11.3719 7.30717 11.5009 6.65674 11.5 6C11.5008 5.34327 11.3719 4.69285 11.1206 4.08611C10.8692 3.47937 10.5005 2.92828 10.0355 2.4645C9.57174 1.99951 9.02065 1.63075 8.41391 1.37943C7.80717 1.1281 7.15674 0.999153 6.5 1C5.84327 0.999167 5.19285 1.12812 4.58611 1.37944C3.97937 1.63077 3.42828 1.99952 2.9645 2.4645C2.49952 2.92828 2.13077 3.47937 1.87944 4.08611C1.62812 4.69285 1.49917 5.34327 1.5 6C1.49915 6.65674 1.6281 7.30717 1.87943 7.91391C2.13075 8.52065 2.49951 9.07174 2.9645 9.5355C3.42828 10.0005 3.97937 10.3692 4.58611 10.6206C5.19285 10.8719 5.84327 11.0008 6.5 11Z" fill="white" stroke="white" stroke-width="1.33333" stroke-linejoin="round"/>
      <path d="M4.5 6L6 7.5L9 4.5" stroke="black" stroke-width="1.33333" stroke-linecap="round" stroke-linejoin="round"/>
    </mask>
    <g mask="url(#mask0_215_3464)">
      <path d="M0.5 0H12.5V12H0.5V0Z" fill="#FFFFF5"/>
    </g>
  </g>
  <defs>
    <clipPath id="clip0_215_3464">
      <rect width="12" height="12" fill="white" transform="translate(0.5)"/>
    </clipPath>
  </defs>
</svg>