<svg width="27" height="24" viewBox="0 0 27 24" fill="none" xmlns="http://www.w3.org/2000/svg">
<path id="Vector" d="M21.5017 13.7539C21.5017 14.1495 21.3844 14.5361 21.1646 14.865C20.9448 15.1939 20.6325 15.4503 20.267 15.6017C19.9016 15.753 19.4994 15.7926 19.1115 15.7155C18.7235 15.6383 18.3671 15.4478 18.0874 15.1681C17.8077 14.8884 17.6173 14.532 17.5401 14.1441C17.4629 13.7561 17.5025 13.354 17.6539 12.9885C17.8053 12.6231 18.0616 12.3107 18.3905 12.091C18.7194 11.8712 19.1061 11.7539 19.5017 11.7539C20.0321 11.7539 20.5408 11.9646 20.9159 12.3397C21.2909 12.7148 21.5017 13.2235 21.5017 13.7539ZM26.5017 9.75391V19.7539C26.5017 20.8148 26.0802 21.8322 25.3301 22.5823C24.5799 23.3325 23.5625 23.7539 22.5017 23.7539H4.50165C3.44079 23.7539 2.42337 23.3325 1.67323 22.5823C0.923081 21.8322 0.501654 20.8148 0.501654 19.7539V4.86891C0.486269 4.33402 0.578363 3.80149 0.772483 3.30283C0.966602 2.80418 1.2588 2.34954 1.63178 1.96584C2.00476 1.58214 2.45093 1.27718 2.94388 1.069C3.43684 0.860832 3.96655 0.753685 4.50165 0.753907H21.0017C21.3995 0.753907 21.781 0.911942 22.0623 1.19325C22.3436 1.47455 22.5017 1.85608 22.5017 2.25391C22.5017 2.65173 22.3436 3.03326 22.0623 3.31457C21.781 3.59587 21.3995 3.75391 21.0017 3.75391H4.50165C4.36755 3.75384 4.23481 3.78074 4.11131 3.83301C3.98782 3.88529 3.8761 3.96187 3.7828 4.0582C3.68951 4.15452 3.61654 4.26863 3.56824 4.39374C3.51994 4.51884 3.4973 4.65238 3.50165 4.78641V4.79641C3.52266 5.06118 3.64417 5.30788 3.84127 5.48592C4.03837 5.66396 4.29611 5.75985 4.56165 5.75391H22.5017C23.5625 5.75391 24.5799 6.17533 25.3301 6.92548C26.0802 7.67562 26.5017 8.69304 26.5017 9.75391ZM23.5017 9.75391C23.5017 9.48869 23.3963 9.23434 23.2088 9.0468C23.0212 8.85926 22.7669 8.75391 22.5017 8.75391H4.56165C4.20402 8.75406 3.84783 8.70869 3.50165 8.61891V19.7539C3.50165 20.0191 3.60701 20.2735 3.79455 20.461C3.98208 20.6486 4.23644 20.7539 4.50165 20.7539H22.5017C22.7669 20.7539 23.0212 20.6486 23.2088 20.461C23.3963 20.2735 23.5017 20.0191 23.5017 19.7539V9.75391Z" fill="#FFFFF5"/>
</svg>
